<svg width="428" height="84" viewBox="0 0 428 84" fill="none" xmlns="http://www.w3.org/2000/svg">
<path d="M42 2L2 65L42 82V2Z" fill="url(#paint0_linear_3566_295)"/>
<path d="M2 65L42 48L82 65L42 82L2 65Z" fill="url(#paint1_radial_3566_295)"/>
<path d="M42 2L82 65L42 82V2Z" fill="url(#paint2_linear_3566_295)"/>
<path d="M107.776 62.5V21.2H128.898C137.748 21.2 145.182 27.041 145.182 35.832C145.182 44.151 137.335 50.464 128.898 50.464H116.036V62.5H107.776ZM136.922 35.832C136.922 31.761 133.5 28.811 128.898 28.811H116.036V42.735H128.898C133.441 42.735 136.922 39.726 136.922 35.832ZM179.604 62.5L170.459 50.464H159.249V62.5H150.989V21.2H172.229C181.079 21.2 188.395 27.041 188.395 35.832C188.395 41.614 184.619 46.452 179.486 48.871L189.87 62.5H179.604ZM180.135 35.832C180.135 31.761 176.831 28.811 172.229 28.811H159.249V42.735H172.229C176.772 42.735 180.135 39.726 180.135 35.832ZM201.711 21.2V62.5H193.451V21.2H201.711ZM245.349 50.995C245.349 57.839 238.682 63.385 227.649 63.385C216.557 63.385 207.943 57.957 207.353 49.815H215.967C216.852 53.768 221.513 56.305 227.531 56.305C233.136 56.305 237.089 53.945 237.089 50.759C237.089 40.906 207.884 50.936 207.884 32.056C207.884 24.799 215.554 20.315 225.702 20.315C236.44 20.315 243.992 25.448 244.641 32.941H236.086C235.378 29.755 231.012 27.159 225.702 27.159C219.92 27.159 216.144 29.342 216.144 32.292C216.144 41.437 245.349 31.879 245.349 50.995ZM259.503 35.891V62.5H251.243V21.2H261.745L275.079 52.647L288.354 21.2H298.856V62.5H290.596V36.009L279.209 62.5H270.89L259.503 35.891ZM301.72 62.5L322.429 21.2H331.633L352.46 62.5H343.256L338.359 52.765H315.762L310.865 62.5H301.72ZM319.538 45.213H334.524L327.031 30.345L319.538 45.213ZM389.226 55.302C395.657 55.302 400.2 50.346 400.2 43.148V21.2H408.46V43.148C408.46 54.535 400.672 63.208 389.226 63.208C378.016 63.208 369.992 54.535 369.992 43.148V21.2H378.252V43.148C378.252 50.169 382.913 55.302 389.226 55.302ZM424.114 21.2V62.5H415.854V21.2H424.114Z" fill="white"/>
<defs>
<linearGradient id="paint0_linear_3566_295" x1="2" y1="42" x2="42" y2="42" gradientUnits="userSpaceOnUse">
<stop stop-color="white"/>
<stop offset="1" stop-color="white" stop-opacity="0"/>
</linearGradient>
<radialGradient id="paint1_radial_3566_295" cx="0" cy="0" r="1" gradientUnits="userSpaceOnUse" gradientTransform="translate(42 48) rotate(90) scale(34 80)">
<stop stop-color="white"/>
<stop offset="1" stop-color="white" stop-opacity="0"/>
</radialGradient>
<linearGradient id="paint2_linear_3566_295" x1="82" y1="42" x2="42" y2="42" gradientUnits="userSpaceOnUse">
<stop stop-color="white" stop-opacity="0"/>
<stop offset="1" stop-color="white"/>
</linearGradient>
</defs>
</svg>
