<svg width="1799" height="450" viewBox="0 0 1799 450" fill="none" xmlns="http://www.w3.org/2000/svg">
<g clip-path="url(#clip0_1721_43)">
<g clip-path="url(#clip1_1721_43)">
<path d="M408.881 342.844L254.119 14.1939C252.204 10.1375 249.223 6.67768 245.495 4.18425C241.766 1.69082 237.43 0.25754 232.95 0.0376173C228.468 -0.260661 223.99 0.675882 220.003 2.74536C216.016 4.81484 212.673 7.93801 210.338 11.7751L42.4876 283.65C39.9488 287.759 38.6291 292.505 38.6822 297.334C38.7353 302.164 40.159 306.879 42.7876 310.931L124.838 438.019C127.948 442.779 132.509 446.41 137.846 448.372C143.183 450.335 149.01 450.524 154.463 448.913L392.644 378.469C399.938 376.313 405.9 371.156 409.013 364.313C412.125 357.469 412.088 349.631 408.881 342.844ZM374.231 356.944L172.125 416.7C170.725 417.126 169.238 417.182 167.809 416.863C166.381 416.544 165.059 415.86 163.974 414.878C162.888 413.896 162.075 412.65 161.614 411.26C161.153 409.871 161.06 408.386 161.344 406.95L233.531 61.2376C234.881 54.7689 243.825 53.7376 246.638 59.7376L380.306 343.575C380.897 344.841 381.206 346.219 381.213 347.616C381.219 349.013 380.922 350.394 380.343 351.665C379.764 352.936 378.916 354.066 377.857 354.977C376.799 355.889 375.574 356.56 374.231 356.944Z" fill="url(#paint0_linear_1721_43)"/>
</g>
<path d="M565.353 335.723C565.138 333.707 564.23 332.137 562.63 331.014C561.045 329.891 558.983 329.329 556.444 329.329C554.659 329.329 553.127 329.598 551.85 330.137C550.573 330.675 549.596 331.406 548.919 332.33C548.242 333.253 547.895 334.307 547.88 335.492C547.88 336.477 548.103 337.331 548.549 338.054C549.011 338.777 549.634 339.393 550.419 339.901C551.204 340.393 552.073 340.808 553.027 341.147C553.981 341.486 554.943 341.77 555.913 342.001L560.344 343.109C562.129 343.525 563.845 344.086 565.492 344.794C567.154 345.502 568.639 346.394 569.947 347.472C571.27 348.549 572.317 349.849 573.086 351.373C573.855 352.896 574.24 354.681 574.24 356.728C574.24 359.498 573.532 361.937 572.116 364.045C570.701 366.138 568.654 367.776 565.977 368.961C563.314 370.131 560.091 370.716 556.305 370.716C552.627 370.716 549.434 370.146 546.726 369.007C544.033 367.869 541.925 366.207 540.401 364.022C538.893 361.837 538.078 359.174 537.955 356.035H546.38C546.503 357.682 547.011 359.051 547.903 360.144C548.796 361.236 549.957 362.052 551.388 362.591C552.835 363.129 554.451 363.398 556.236 363.398C558.098 363.398 559.729 363.121 561.129 362.567C562.545 361.998 563.653 361.213 564.453 360.213C565.253 359.197 565.661 358.013 565.676 356.658C565.661 355.427 565.299 354.412 564.592 353.612C563.884 352.796 562.891 352.119 561.614 351.58C560.352 351.026 558.875 350.534 557.182 350.103L551.804 348.718C547.911 347.718 544.833 346.202 542.571 344.171C540.324 342.124 539.201 339.408 539.201 336.023C539.201 333.237 539.955 330.798 541.463 328.706C542.987 326.613 545.056 324.989 547.672 323.835C550.288 322.666 553.25 322.081 556.559 322.081C559.914 322.081 562.853 322.666 565.376 323.835C567.915 324.989 569.908 326.597 571.355 328.659C572.801 330.706 573.548 333.06 573.594 335.723H565.353ZM586.23 370V322.727H594.793V344.448H595.37L613.813 322.727H624.269L605.988 343.94L624.431 370H614.136L600.033 349.734L594.793 355.92V370H586.23ZM631.342 322.727H641.014L652.578 343.64H653.04L664.604 322.727H674.276L657.079 352.365V370H648.539V352.365L631.342 322.727ZM684.695 370V322.727H702.423C706.054 322.727 709.101 323.358 711.563 324.62C714.041 325.882 715.911 327.652 717.172 329.929C718.45 332.191 719.088 334.83 719.088 337.846C719.088 340.878 718.442 343.509 717.149 345.74C715.872 347.956 713.987 349.672 711.494 350.888C709.001 352.088 705.939 352.688 702.307 352.688H689.681V345.579H701.153C703.277 345.579 705.016 345.286 706.37 344.702C707.724 344.102 708.724 343.232 709.37 342.093C710.032 340.939 710.363 339.524 710.363 337.846C710.363 336.169 710.032 334.738 709.37 333.553C708.709 332.353 707.701 331.445 706.347 330.829C704.993 330.198 703.246 329.883 701.107 329.883H693.259V370H684.695ZM709.117 348.58L720.819 370H711.263L699.768 348.58H709.117ZM739.889 322.727V370H731.326V322.727H739.889ZM753.518 322.727H763.997L778.031 356.982H778.585L792.619 322.727H803.099V370H794.881V337.523H794.443L781.378 369.862H775.238L762.174 337.454H761.735V370H753.518V322.727ZM876.105 322.727V370H868.487L846.213 337.8H845.821V370H837.257V322.727H844.92L867.172 354.95H867.587V322.727H876.105ZM889.791 370V322.727H920.536V329.906H898.354V342.74H918.944V349.918H898.354V362.821H920.721V370H889.791ZM940.784 322.727L951.194 340.039H951.563L962.019 322.727H971.783L957.218 346.364L972.014 370H962.089L951.563 352.804H951.194L940.668 370H930.789L945.723 346.364L930.974 322.727H940.784ZM980.784 329.906V322.727H1018.5V329.906H1003.89V370H995.395V329.906H980.784ZM1048.33 342.924V349.803H1027.04V342.924H1048.33ZM1093.51 337.823C1093.12 336.577 1092.59 335.461 1091.92 334.476C1091.25 333.476 1090.45 332.622 1089.52 331.914C1088.59 331.206 1087.53 330.675 1086.33 330.321C1085.13 329.952 1083.82 329.767 1082.41 329.767C1079.87 329.767 1077.6 330.406 1075.62 331.683C1073.63 332.96 1072.07 334.838 1070.93 337.315C1069.81 339.777 1069.25 342.778 1069.25 346.317C1069.25 349.888 1069.81 352.911 1070.93 355.389C1072.06 357.866 1073.62 359.751 1075.62 361.044C1077.62 362.321 1079.94 362.96 1082.59 362.96C1084.99 362.96 1087.07 362.498 1088.82 361.575C1090.59 360.652 1091.95 359.344 1092.91 357.651C1093.86 355.943 1094.34 353.942 1094.34 351.65L1096.28 351.95H1083.44V345.256H1102.63V350.934C1102.63 354.981 1101.76 358.482 1100.04 361.436C1098.32 364.391 1095.95 366.668 1092.93 368.269C1089.92 369.854 1086.45 370.646 1082.54 370.646C1078.19 370.646 1074.37 369.669 1071.07 367.715C1067.79 365.745 1065.23 362.952 1063.39 359.336C1061.55 355.704 1060.64 351.396 1060.64 346.41C1060.64 342.594 1061.18 339.185 1062.26 336.184C1063.35 333.184 1064.87 330.637 1066.83 328.544C1068.78 326.436 1071.07 324.835 1073.7 323.743C1076.34 322.635 1079.2 322.081 1082.29 322.081C1084.91 322.081 1087.35 322.466 1089.61 323.235C1091.87 323.989 1093.88 325.066 1095.63 326.467C1097.4 327.867 1098.86 329.529 1099.99 331.452C1101.13 333.376 1101.88 335.5 1102.23 337.823H1093.51ZM1115.26 370V322.727H1146.01V329.906H1123.83V342.74H1144.42V349.918H1123.83V362.821H1146.19V370H1115.26ZM1197.95 322.727V370H1190.33L1168.06 337.8H1167.66V370H1159.1V322.727H1166.76L1189.01 354.95H1189.43V322.727H1197.95ZM1261.91 322.727H1270.47V353.612C1270.47 356.997 1269.67 359.975 1268.07 362.544C1266.49 365.114 1264.26 367.122 1261.38 368.569C1258.5 370 1255.14 370.716 1251.29 370.716C1247.43 370.716 1244.06 370 1241.18 368.569C1238.3 367.122 1236.07 365.114 1234.49 362.544C1232.9 359.975 1232.11 356.997 1232.11 353.612V322.727H1240.67V352.896C1240.67 354.866 1241.11 356.62 1241.97 358.159C1242.84 359.698 1244.08 360.906 1245.66 361.783C1247.25 362.644 1249.12 363.075 1251.29 363.075C1253.46 363.075 1255.34 362.644 1256.92 361.783C1258.53 360.906 1259.76 359.698 1260.62 358.159C1261.48 356.62 1261.91 354.866 1261.91 352.896V322.727ZM1292.7 322.727V370H1284.14V322.727H1292.7ZM1326.81 370V322.727H1357.09V329.906H1335.37V342.74H1355.01V349.918H1335.37V370H1326.81ZM1369.25 370V322.727H1386.98C1390.61 322.727 1393.65 323.358 1396.12 324.62C1398.59 325.882 1400.46 327.652 1401.72 329.929C1403 332.191 1403.64 334.83 1403.64 337.846C1403.64 340.878 1402.99 343.509 1401.7 345.74C1400.42 347.956 1398.54 349.672 1396.05 350.888C1393.55 352.088 1390.49 352.688 1386.86 352.688H1374.23V345.579H1385.71C1387.83 345.579 1389.57 345.286 1390.92 344.702C1392.28 344.102 1393.28 343.232 1393.92 342.093C1394.58 340.939 1394.92 339.524 1394.92 337.846C1394.92 336.169 1394.58 334.738 1393.92 333.553C1393.26 332.353 1392.25 331.445 1390.9 330.829C1389.55 330.198 1387.8 329.883 1385.66 329.883H1377.81V370H1369.25ZM1393.67 348.58L1405.37 370H1395.82L1384.32 348.58H1393.67ZM1421.95 370H1412.81L1429.45 322.727H1440.02L1456.69 370H1447.55L1434.92 332.422H1434.55L1421.95 370ZM1422.25 351.465H1447.18V358.343H1422.25V351.465ZM1467.27 322.727H1477.75L1491.78 356.982H1492.34L1506.37 322.727H1516.85V370H1508.63V337.523H1508.19L1495.13 369.862H1488.99L1475.93 337.454H1475.49V370H1467.27V322.727ZM1530.53 370V322.727H1561.28V329.906H1539.09V342.74H1559.68V349.918H1539.09V362.821H1561.46V370H1530.53ZM1584.32 370L1570.98 322.727H1580.18L1588.7 357.466H1589.14L1598.24 322.727H1606.61L1615.73 357.489H1616.15L1624.66 322.727H1633.87L1620.53 370H1612.08L1602.62 336.831H1602.25L1592.76 370H1584.32ZM1683.87 346.364C1683.87 351.457 1682.92 355.82 1681.01 359.451C1679.11 363.068 1676.53 365.837 1673.25 367.761C1669.99 369.685 1666.29 370.646 1662.15 370.646C1658.01 370.646 1654.3 369.685 1651.02 367.761C1647.76 365.822 1645.18 363.045 1643.27 359.428C1641.37 355.797 1640.43 351.442 1640.43 346.364C1640.43 341.27 1641.37 336.915 1643.27 333.299C1645.18 329.667 1647.76 326.89 1651.02 324.966C1654.3 323.043 1658.01 322.081 1662.15 322.081C1666.29 322.081 1669.99 323.043 1673.25 324.966C1676.53 326.89 1679.11 329.667 1681.01 333.299C1682.92 336.915 1683.87 341.27 1683.87 346.364ZM1675.26 346.364C1675.26 342.778 1674.7 339.754 1673.57 337.292C1672.47 334.815 1670.93 332.945 1668.96 331.683C1666.99 330.406 1664.72 329.767 1662.15 329.767C1659.58 329.767 1657.31 330.406 1655.34 331.683C1653.37 332.945 1651.82 334.815 1650.7 337.292C1649.59 339.754 1649.04 342.778 1649.04 346.364C1649.04 349.949 1649.59 352.981 1650.7 355.458C1651.82 357.92 1653.37 359.79 1655.34 361.067C1657.31 362.329 1659.58 362.96 1662.15 362.96C1664.72 362.96 1666.99 362.329 1668.96 361.067C1670.93 359.79 1672.47 357.92 1673.57 355.458C1674.7 352.981 1675.26 349.949 1675.26 346.364ZM1696.32 370V322.727H1714.05C1717.68 322.727 1720.73 323.358 1723.19 324.62C1725.67 325.882 1727.54 327.652 1728.8 329.929C1730.07 332.191 1730.71 334.83 1730.71 337.846C1730.71 340.878 1730.07 343.509 1728.77 345.74C1727.5 347.956 1725.61 349.672 1723.12 350.888C1720.63 352.088 1717.56 352.688 1713.93 352.688H1701.31V345.579H1712.78C1714.9 345.579 1716.64 345.286 1717.99 344.702C1719.35 344.102 1720.35 343.232 1721 342.093C1721.66 340.939 1721.99 339.524 1721.99 337.846C1721.99 336.169 1721.66 334.738 1721 333.553C1720.33 332.353 1719.33 331.445 1717.97 330.829C1716.62 330.198 1714.87 329.883 1712.73 329.883H1704.88V370H1696.32ZM1720.74 348.58L1732.44 370H1722.89L1711.39 348.58H1720.74ZM1742.95 370V322.727H1751.51V344.448H1752.09L1770.53 322.727H1780.99L1762.71 343.94L1781.15 370H1770.86L1756.75 349.734L1751.51 355.92V370H1742.95Z" fill="#969696"/>
<path d="M539.446 280V79.2727H618.639C633.864 79.2727 646.834 82.1804 657.55 87.9957C668.266 93.7457 676.433 101.75 682.053 112.009C687.737 122.202 690.58 133.963 690.58 147.293C690.58 160.622 687.705 172.384 681.955 182.577C676.205 192.77 667.874 200.709 656.962 206.393C646.115 212.078 632.982 214.92 617.561 214.92H567.085V180.911H610.7C618.868 180.911 625.598 179.506 630.891 176.696C636.249 173.821 640.234 169.868 642.848 164.837C645.527 159.74 646.866 153.892 646.866 147.293C646.866 140.628 645.527 134.812 642.848 129.847C640.234 124.815 636.249 120.928 630.891 118.183C625.533 115.374 618.737 113.969 610.504 113.969H581.885V280H539.446ZM717.361 280V129.455H757.84V155.722H759.408C762.152 146.378 766.759 139.321 773.228 134.551C779.696 129.716 787.145 127.298 795.574 127.298C797.665 127.298 799.919 127.429 802.337 127.69C804.755 127.952 806.878 128.311 808.708 128.768V165.817C806.748 165.229 804.036 164.706 800.573 164.249C797.11 163.791 793.941 163.562 791.066 163.562C784.924 163.562 779.435 164.902 774.6 167.581C769.83 170.195 766.04 173.854 763.23 178.558C760.486 183.263 759.114 188.686 759.114 194.828V280H717.361ZM830.295 280V129.455H872.048V280H830.295ZM851.269 110.048C845.062 110.048 839.737 107.99 835.293 103.874C830.915 99.6918 828.727 94.6932 828.727 88.8778C828.727 83.1278 830.915 78.1946 835.293 74.0781C839.737 69.8963 845.062 67.8054 851.269 67.8054C857.477 67.8054 862.769 69.8963 867.147 74.0781C871.59 78.1946 873.812 83.1278 873.812 88.8778C873.812 94.6932 871.59 99.6918 867.147 103.874C862.769 107.99 857.477 110.048 851.269 110.048ZM1030.75 172.384L992.528 174.736C991.875 171.469 990.47 168.528 988.314 165.915C986.157 163.236 983.315 161.112 979.787 159.544C976.324 157.911 972.174 157.094 967.339 157.094C960.87 157.094 955.414 158.466 950.971 161.21C946.528 163.889 944.306 167.483 944.306 171.991C944.306 175.585 945.744 178.624 948.619 181.107C951.494 183.589 956.427 185.582 963.419 187.085L990.666 192.574C1005.3 195.58 1016.21 200.415 1023.4 207.08C1030.59 213.744 1034.18 222.5 1034.18 233.347C1034.18 243.213 1031.28 251.871 1025.46 259.32C1019.71 266.768 1011.8 272.584 1001.74 276.766C991.744 280.882 980.211 282.94 967.143 282.94C947.214 282.94 931.336 278.791 919.51 270.493C907.748 262.129 900.855 250.76 898.829 236.385L939.896 234.229C941.137 240.305 944.143 244.945 948.913 248.146C953.683 251.283 959.792 252.851 967.241 252.851C974.559 252.851 980.44 251.446 984.883 248.636C989.392 245.761 991.679 242.07 991.744 237.561C991.679 233.771 990.078 230.668 986.941 228.25C983.805 225.767 978.97 223.872 972.436 222.565L946.365 217.371C931.663 214.43 920.718 209.334 913.531 202.081C906.409 194.828 902.848 185.582 902.848 174.344C902.848 164.673 905.461 156.342 910.689 149.351C915.981 142.359 923.397 136.969 932.937 133.179C942.542 129.389 953.781 127.494 966.653 127.494C985.667 127.494 1000.63 131.513 1011.54 139.55C1022.52 147.587 1028.92 158.531 1030.75 172.384ZM1060.47 280V129.455H1100.27V156.016H1102.03C1105.17 147.195 1110.39 140.236 1117.71 135.139C1125.03 130.043 1133.79 127.494 1143.98 127.494C1154.3 127.494 1163.09 130.075 1170.35 135.237C1177.6 140.334 1182.43 147.26 1184.85 156.016H1186.42C1189.49 147.391 1195.04 140.497 1203.08 135.335C1211.18 130.108 1220.76 127.494 1231.8 127.494C1245.85 127.494 1257.25 131.97 1266 140.922C1274.83 149.808 1279.24 162.419 1279.24 178.754V280H1237.58V186.987C1237.58 178.624 1235.36 172.351 1230.92 168.169C1226.47 163.987 1220.92 161.896 1214.25 161.896C1206.67 161.896 1200.76 164.314 1196.51 169.149C1192.27 173.919 1190.14 180.224 1190.14 188.065V280H1149.66V186.105C1149.66 178.722 1147.54 172.841 1143.29 168.463C1139.11 164.085 1133.59 161.896 1126.73 161.896C1122.09 161.896 1117.91 163.072 1114.18 165.425C1110.53 167.712 1107.62 170.946 1105.46 175.128C1103.31 179.244 1102.23 184.08 1102.23 189.634V280H1060.47ZM1355.15 282.842C1345.54 282.842 1336.98 281.176 1329.47 277.844C1321.95 274.446 1316.01 269.447 1311.63 262.848C1307.32 256.183 1305.16 247.885 1305.16 237.953C1305.16 229.589 1306.7 222.565 1309.77 216.881C1312.84 211.196 1317.02 206.622 1322.31 203.159C1327.6 199.696 1333.62 197.082 1340.35 195.318C1347.14 193.554 1354.26 192.312 1361.71 191.594C1370.47 190.679 1377.52 189.83 1382.88 189.045C1388.24 188.196 1392.13 186.955 1394.55 185.321C1396.96 183.687 1398.17 181.27 1398.17 178.068V177.48C1398.17 171.273 1396.21 166.47 1392.29 163.072C1388.44 159.675 1382.95 157.976 1375.83 157.976C1368.31 157.976 1362.33 159.642 1357.89 162.974C1353.45 166.241 1350.51 170.358 1349.07 175.324L1310.45 172.188C1312.41 163.04 1316.27 155.134 1322.02 148.469C1327.77 141.739 1335.18 136.577 1344.27 132.983C1353.41 129.324 1364 127.494 1376.02 127.494C1384.39 127.494 1392.39 128.474 1400.03 130.435C1407.75 132.395 1414.57 135.433 1420.52 139.55C1426.53 143.666 1431.27 148.959 1434.73 155.428C1438.19 161.831 1439.93 169.509 1439.93 178.46V280H1400.33V259.124H1399.15C1396.74 263.828 1393.5 267.977 1389.45 271.571C1385.4 275.099 1380.53 277.876 1374.85 279.902C1369.16 281.862 1362.59 282.842 1355.15 282.842ZM1367.1 254.027C1373.25 254.027 1378.67 252.818 1383.37 250.401C1388.08 247.918 1391.77 244.585 1394.45 240.403C1397.13 236.222 1398.47 231.484 1398.47 226.192V210.216C1397.16 211.065 1395.36 211.849 1393.08 212.568C1390.85 213.222 1388.34 213.842 1385.53 214.43C1382.72 214.953 1379.91 215.443 1377.1 215.901C1374.29 216.293 1371.74 216.652 1369.46 216.979C1364.55 217.697 1360.27 218.841 1356.62 220.409C1352.96 221.977 1350.11 224.101 1348.09 226.78C1346.06 229.393 1345.05 232.661 1345.05 236.581C1345.05 242.266 1347.11 246.611 1351.23 249.616C1355.41 252.557 1360.7 254.027 1367.1 254.027ZM1660.97 79.2727H1703.4V209.628C1703.4 224.264 1699.91 237.071 1692.92 248.048C1685.99 259.026 1676.29 267.585 1663.81 273.727C1651.33 279.804 1636.79 282.842 1620.19 282.842C1603.53 282.842 1588.96 279.804 1576.48 273.727C1564 267.585 1554.3 259.026 1547.37 248.048C1540.44 237.071 1536.98 224.264 1536.98 209.628V79.2727H1579.42V206.001C1579.42 213.646 1581.09 220.442 1584.42 226.388C1587.82 232.334 1592.59 237.006 1598.73 240.403C1604.87 243.801 1612.03 245.5 1620.19 245.5C1628.43 245.5 1635.58 243.801 1641.66 240.403C1647.8 237.006 1652.54 232.334 1655.87 226.388C1659.27 220.442 1660.97 213.646 1660.97 206.001V79.2727ZM1780.76 79.2727V280H1738.32V79.2727H1780.76Z" fill="#F6F6F9"/>
</g>
<defs>
<linearGradient id="paint0_linear_1721_43" x1="38.6807" y1="224.99" x2="411.317" y2="224.99" gradientUnits="userSpaceOnUse">
<stop stop-color="#F25454"/>
<stop offset="0.75" stop-color="#7D44EF"/>
</linearGradient>
<clipPath id="clip0_1721_43">
<rect width="1799" height="450" rx="80" fill="white"/>
</clipPath>
<clipPath id="clip1_1721_43">
<rect width="450" height="450" fill="white"/>
</clipPath>
</defs>
</svg>
