<svg width="450" height="450" viewBox="0 0 450 450" fill="none" xmlns="http://www.w3.org/2000/svg">
<g clip-path="url(#clip0_1721_49)">
<path d="M408.881 342.844L254.119 14.1939C252.204 10.1375 249.223 6.67768 245.495 4.18425C241.766 1.69082 237.43 0.25754 232.95 0.0376173C228.468 -0.260661 223.99 0.675882 220.003 2.74536C216.016 4.81484 212.673 7.93801 210.338 11.7751L42.4876 283.65C39.9488 287.759 38.6291 292.505 38.6822 297.334C38.7353 302.164 40.159 306.879 42.7876 310.931L124.838 438.019C127.948 442.779 132.509 446.41 137.846 448.372C143.183 450.335 149.01 450.524 154.463 448.913L392.644 378.469C399.938 376.313 405.9 371.156 409.013 364.313C412.125 357.469 412.088 349.631 408.881 342.844ZM374.231 356.944L172.125 416.7C170.725 417.126 169.238 417.182 167.809 416.863C166.381 416.544 165.059 415.86 163.974 414.878C162.888 413.896 162.075 412.65 161.614 411.26C161.153 409.871 161.06 408.386 161.344 406.95L233.531 61.2376C234.881 54.7689 243.825 53.7376 246.638 59.7376L380.306 343.575C380.897 344.841 381.206 346.219 381.213 347.616C381.219 349.013 380.922 350.394 380.343 351.665C379.764 352.936 378.916 354.066 377.857 354.977C376.799 355.889 375.574 356.56 374.231 356.944Z" fill="url(#paint0_linear_1721_49)"/>
</g>
<defs>
<linearGradient id="paint0_linear_1721_49" x1="38.6807" y1="224.99" x2="411.317" y2="224.99" gradientUnits="userSpaceOnUse">
<stop stop-color="#F25454"/>
<stop offset="0.75" stop-color="#7D44EF"/>
</linearGradient>
<clipPath id="clip0_1721_49">
<rect width="450" height="450" fill="white"/>
</clipPath>
</defs>
</svg>
