<svg width="957" height="224" viewBox="0 0 957 224" fill="none" xmlns="http://www.w3.org/2000/svg">
<path d="M61.1103 223.895C60.3135 223.895 59.3573 223.895 58.5606 223.736C56.4889 223.417 54.5767 223.098 52.3457 222.301C48.5211 221.027 45.1747 219.274 42.7843 217.839C37.5256 214.812 32.2669 211.146 26.53 206.366C23.9804 204.294 21.59 202.063 19.1997 199.832L17.2874 197.92C15.8532 196.645 14.7377 195.37 13.7816 193.777C12.0287 191.068 10.4351 187.402 10.2757 182.781C10.1164 181.347 9.95704 179.753 9.95704 178.16C9.95704 174.813 10.1164 171.308 10.5945 167.802C11.5506 160.631 13.9409 154.256 15.6938 149.476C15.8532 148.998 16.0126 148.679 16.1719 148.201C15.6939 146.926 15.2158 145.651 14.7377 144.217C12.188 137.046 10.5945 129.078 9.79769 121.11C9.00091 112.665 9.31962 104.219 10.4351 95.7728C10.7538 94.0199 10.9132 92.267 11.3912 90.5141C8.04477 85.7334 3.90153 78.8811 1.35184 70.9133V70.754C0.873768 69.1604 -0.560453 65.0172 0.236326 59.7584C0.555037 57.8462 0.873764 55.9339 1.67054 53.8623C2.94539 50.0377 4.6983 46.8506 6.1325 44.4603C9.16026 39.2015 12.8254 33.9428 17.4468 28.3653C19.5184 25.8156 21.59 23.4253 23.821 21.1943L25.7333 19.282C26.6894 18.1666 27.8049 17.2104 29.0797 16.4137C31.7888 14.342 35.6133 12.5891 40.8721 12.4298C42.4656 12.2704 44.3779 12.111 46.1308 12.111H46.2902C49.796 12.111 53.4612 12.4297 56.967 12.9078C62.3851 13.7046 67.4845 15.2981 71.7871 16.8917C74.6555 15.6169 77.6833 14.5014 80.8704 13.3859C88.3601 10.8362 96.3279 9.24264 104.296 8.76457C112.742 8.12715 121.187 8.44585 129.315 9.88006C131.227 10.1988 133.139 10.5175 135.051 10.9955C141.585 6.53358 147.481 3.50582 153.537 1.43419H153.696C155.13 0.956125 158.158 0 162.142 0C162.939 0 163.895 -1.45918e-05 164.692 0.159341C166.763 0.478053 168.675 0.796779 170.906 1.59356C174.731 2.8684 178.077 4.62132 180.468 6.05553C185.727 9.08329 190.985 12.7485 196.722 17.5291C199.272 19.6008 201.662 21.8317 204.052 24.0627L205.965 25.975C206.921 26.7718 207.877 27.7279 208.514 28.8434C211.064 32.0305 212.976 36.4925 212.976 42.8667C213.136 45.0977 213.136 47.3287 212.976 49.719C212.658 54.8184 212.02 59.5991 210.745 64.061C209.789 67.4075 208.674 70.5946 207.399 73.9411C209.949 80.156 211.702 86.3709 212.817 92.9045C215.367 106.45 215.048 120.473 212.02 134.018C213.773 136.568 215.526 139.118 216.801 141.508C219.191 145.651 221.104 149.954 222.378 154.256C222.856 155.85 224.131 159.993 223.334 165.571C223.016 167.483 222.538 169.236 221.9 171.307C219.351 178.319 215.526 184.056 212.18 188.837C208.514 194.095 204.212 199.195 199.75 203.816L198.156 205.41C197.2 206.525 196.085 207.481 194.81 208.437C192.101 210.509 188.276 212.103 183.017 212.421C181.424 212.581 179.512 212.74 177.759 212.74H177.599C173.934 212.74 170.11 212.421 166.285 211.784C160.07 210.828 154.652 208.916 149.712 207.003C147.162 208.119 144.294 209.075 141.744 209.872C134.095 212.262 125.968 213.696 117.841 214.174C109.395 214.652 100.949 214.015 92.6627 212.581C91.7066 212.421 90.5911 212.103 89.635 212.103C82.4639 217.202 76.0897 220.548 69.5561 222.62H69.3968C68.1219 222.779 65.0942 223.895 61.1103 223.895ZM34.0198 184.853L48.5211 189.952C49.796 186.446 49.9554 182.462 48.9992 178.957C48.9992 179.275 48.9992 179.594 49.1586 179.913C49.1586 180.391 49.3179 180.869 49.3179 181.347C49.1586 178.638 48.2024 174.973 45.8121 171.786C44.856 170.511 43.7405 169.395 42.4656 168.439L43.1031 168.917L44.3779 170.192C43.2624 169.077 41.9876 167.961 40.7127 167.005L34.0198 184.853ZM170.11 178.479C168.994 179.594 167.879 180.71 166.923 182.144L183.336 188.518V173.22C181.902 173.22 180.308 173.379 178.874 173.698C179.193 173.698 179.352 173.698 179.671 173.698C180.149 173.698 180.627 173.539 181.105 173.539C178.556 173.698 175.368 174.495 172.341 176.407C170.747 177.522 169.313 178.797 168.038 180.391L168.516 179.753L170.11 178.479ZM49.3179 174.813C49.9553 175.291 50.7521 175.929 51.3896 176.566C54.8954 179.594 58.2419 181.984 61.2696 183.737C63.1819 182.781 65.4129 181.347 67.8032 179.594C68.4406 179.116 69.0781 178.638 69.7155 178.16C70.1935 177.841 70.3529 177.522 70.831 177.204C70.9903 177.044 71.309 176.726 71.309 176.726L79.7549 168.12L91.2285 172.104C91.7066 172.264 92.0253 172.423 92.344 172.582C94.8937 173.379 97.284 174.017 99.8337 174.495C104.933 175.451 110.351 175.929 115.451 175.451C120.391 175.132 125.49 174.176 130.111 172.901C132.502 172.264 134.733 171.467 136.964 170.351C138.079 169.873 139.195 169.395 140.151 168.917C142.86 167.483 146.047 166.686 149.234 166.686C154.174 166.686 157.839 168.439 159.752 169.395C160.23 169.714 160.867 169.873 161.504 170.033C165.01 171.467 168.994 173.06 172.5 173.539C172.978 173.698 173.775 173.698 174.253 173.857C176.325 171.467 178.237 169.077 179.99 166.527C181.105 165.093 182.221 163.499 183.177 162.065C183.017 161.746 182.858 161.587 182.699 161.109C181.743 159.515 180.627 157.762 179.193 155.691C178.715 155.053 178.237 154.416 177.759 153.778C177.44 153.46 177.281 153.3 177.121 152.982C171.544 147.563 169.632 139.596 172.181 132.265C172.341 131.787 172.5 131.469 172.659 131.15C175.846 121.27 176.325 110.593 174.572 100.554C173.615 95.7728 172.181 90.9922 170.11 86.3709C169.95 85.8928 169.632 85.5741 169.632 85.096C165.17 76.6502 167.082 69.6385 168.675 66.1327C169.313 64.6985 169.95 63.2643 170.428 61.8301C171.544 59.2804 172.341 56.412 173.137 54.0216C173.456 52.7468 173.615 51.4719 173.775 50.0377C173.137 49.5597 172.341 48.9222 171.703 48.2848C168.038 45.2571 164.851 42.8667 161.823 41.1138C159.911 42.2293 157.68 43.6635 155.29 45.257C154.652 45.7351 153.855 46.3725 153.218 46.8506C153.059 47.01 152.74 47.1693 152.74 47.3287C149.075 50.8345 144.135 52.7468 139.035 52.7468C136.486 52.7468 134.255 52.2687 131.864 51.3126C131.386 51.1532 130.749 50.8345 130.271 50.8345C127.721 50.1971 125.331 49.4003 122.781 49.0816C117.682 48.2848 112.263 47.9661 107.164 48.4442C102.224 48.9222 97.284 49.8784 92.6627 51.3126C90.2724 51.95 88.2007 52.9061 85.9698 53.8623C84.8543 54.3403 83.8981 54.8184 82.7827 55.2965L82.3046 55.6152C79.4362 57.2087 75.9304 58.1649 72.7432 58.1649C69.7155 58.1649 66.6877 57.5275 63.8193 56.0932C63.1819 55.7745 62.5445 55.6152 61.907 55.2965C58.5606 53.8623 54.5767 52.4281 51.2302 51.95C50.7521 51.7906 50.1147 51.7906 49.796 51.6313C49.3179 52.2687 48.6805 53.0655 48.2024 53.5435C45.1747 57.2087 42.7843 60.3959 41.0314 63.583C41.9876 65.4952 43.4218 67.5669 45.0153 70.1166C45.4934 70.754 45.9715 71.5508 46.4495 72.0288C46.7682 72.5069 47.0869 72.6662 47.4057 73.1443L55.3735 81.5902L51.8676 92.5857C51.5489 93.2231 51.3896 94.02 51.2302 94.6574C50.5928 97.2071 49.9554 99.7567 49.6366 102.306C48.8399 107.565 48.6805 112.824 49.1586 118.083C49.6366 123.023 50.5928 127.963 52.3457 132.584C53.1425 134.974 54.0986 137.046 55.0547 139.277C55.2141 139.596 55.3734 139.755 55.5328 140.074C58.4012 145.97 58.4012 152.504 55.3735 158.559C55.0547 159.037 54.8954 159.675 54.736 160.153C54.258 161.587 53.4612 162.862 52.9831 164.296C51.8676 167.324 50.4334 170.829 50.1147 174.017C49.4773 174.176 49.3179 174.654 49.3179 174.813ZM178.715 53.8623C179.83 54.9778 181.105 56.0932 182.539 57.2087L189.232 39.5203L174.731 34.4208C173.456 37.9267 173.297 41.9106 174.253 45.4164C174.253 45.2571 174.253 45.0977 174.253 44.9383C174.253 44.4603 174.253 43.8228 174.253 43.1854V43.0261C174.253 45.0977 174.89 48.4442 177.121 51.7906C178.237 53.2248 179.512 54.659 180.946 55.9339L180.308 55.4558L178.715 53.8623ZM40.394 36.8112V52.1094C41.8282 52.1094 43.4218 51.95 44.856 51.6313C44.5373 51.6313 44.3779 51.6313 44.0592 51.6313C43.5811 51.6313 43.1031 51.7906 42.625 51.7906C45.1747 51.6313 48.3618 50.8345 51.3896 48.9222C52.9831 47.8067 54.4173 46.5319 55.6922 44.9383L55.2141 45.5758L53.9392 47.01C55.0547 45.8945 56.1702 44.6196 57.1264 43.3448L40.394 36.8112Z" fill="black"/>
<path d="M77.5242 122.067L78.4803 160.949L68.919 153.141C58.2421 170.67 54.7363 187.562 59.8357 199.992L61.5886 204.454L57.1266 202.541C47.0872 198.079 38.0039 192.024 30.5142 184.056L30.0361 183.578L29.8768 182.941C29.3987 178.16 29.5581 172.901 30.8329 167.483V167.324C32.5858 160.631 35.2949 153.778 38.482 147.086C40.5536 142.783 42.944 138.64 45.8124 134.496L37.3665 127.644L77.5242 122.067Z" fill="#FAA431"/>
<path d="M145.728 102.466L144.771 63.583L154.333 71.3915C165.01 53.8623 168.516 36.9706 163.416 24.5408L161.663 20.0789L166.125 21.9911C176.165 26.4531 185.248 32.5086 192.738 40.4764L193.216 40.9545L193.375 41.5919C193.853 46.3726 193.694 51.6313 192.419 57.0494V57.2088C190.666 63.9017 187.957 70.754 184.77 77.447C182.698 81.7496 180.308 85.8928 177.439 90.0361L185.885 96.8884L145.728 102.466Z" fill="#FAA431"/>
<path d="M121.824 145.492L160.707 144.536L152.899 154.097C170.428 164.774 187.319 168.28 199.749 163.18L204.211 161.427L202.299 165.889C197.837 175.929 191.781 185.012 183.814 192.502L183.336 192.98L182.698 193.139C177.917 193.617 172.659 193.458 167.241 192.183H167.081C160.388 190.43 153.536 187.721 146.843 184.534C142.54 182.462 138.397 180.072 134.254 177.204L127.402 185.649L121.824 145.492Z" fill="#FAA431"/>
<path d="M102.066 79.8372L63.1827 80.7933L70.9911 71.232C53.462 60.5551 36.5703 57.0493 24.1405 62.1487L19.8379 63.9016L21.7502 59.4396C26.2121 49.4002 32.2676 40.3169 40.2354 32.8272L40.7135 32.3491L41.3509 32.1898C46.1316 31.7117 51.3903 31.8711 56.8084 33.1459H56.9678C63.6607 34.8988 70.513 37.6079 77.206 40.795C81.5086 42.8666 85.6518 45.257 89.7951 48.1254L96.6474 39.6795L102.066 79.8372Z" fill="#FAA431"/>
<path d="M111.945 194.892C157.887 194.892 195.129 157.65 195.129 111.708C195.129 65.7673 157.887 28.5247 111.945 28.5247C66.0043 28.5247 28.7617 65.7673 28.7617 111.708C28.7617 157.65 66.0043 194.892 111.945 194.892Z" fill="#E6832B"/>
<path d="M81.6663 82.3868C76.8857 80.1559 73.2205 77.9249 69.7147 75.3752C64.2966 71.5507 59.1972 67.248 54.8946 62.7861C44.3771 52.2686 38.959 41.273 40.3932 32.3491L37.2061 35.8549C29.7163 43.8227 19.6769 57.846 19.5176 63.9016C19.6769 64.539 19.6769 64.539 19.6769 64.539C21.1111 69.1603 23.1828 73.941 26.3699 78.4029V78.5623C30.5131 85.0959 38.6403 96.0914 67.4837 108.681L62.3843 118.242L101.267 107.724L87.4032 71.2319L81.6663 82.3868Z" fill="white"/>
<path d="M142.064 142.783C146.844 145.014 150.51 147.245 154.015 149.794C159.433 153.619 164.533 157.922 168.835 162.384C179.353 172.901 184.771 183.897 183.337 192.821L186.524 189.474C194.014 181.506 204.053 167.483 204.212 161.428C204.053 160.79 204.053 160.79 204.053 160.79C202.619 156.169 200.547 151.388 197.36 146.926V146.767C193.217 140.233 185.09 129.238 156.246 116.649L161.346 107.087L122.463 117.605L136.486 153.619L142.064 142.783Z" fill="white"/>
<path d="M143.02 82.0682C145.251 77.2875 147.482 73.6223 150.032 70.1165C153.856 64.6984 158.159 59.599 162.621 55.2964C173.138 44.7789 184.134 39.3608 193.058 40.795L189.711 37.6079C181.743 30.1182 167.72 20.0788 161.665 19.9194C161.027 20.0788 161.027 20.0788 161.027 20.0788C156.406 21.513 151.625 23.5846 147.163 26.7717H147.004C140.47 30.915 129.475 39.0421 116.886 67.8855L107.324 62.7861L117.842 101.669L154.175 87.9644L143.02 82.0682Z" fill="white"/>
<path d="M80.0729 142.464C77.8419 147.245 75.6109 150.91 73.0612 154.416C69.2367 159.834 64.9341 164.933 60.4721 169.236C49.9546 179.753 38.9591 185.171 30.0352 183.737L33.3816 186.924C41.3494 194.414 55.3727 204.453 61.4283 204.613C62.0657 204.453 62.0657 204.453 62.0657 204.453C66.687 203.019 71.4677 200.948 75.9296 197.761H76.089C82.6226 193.617 93.6181 185.49 106.207 156.647L115.769 161.746L105.251 122.863L69.0773 136.568L80.0729 142.464Z" fill="white"/>
<path d="M273.055 181.028H264.928V44.4601H276.561L317.515 159.674V44.3008H325.802V180.869H315.922L273.055 59.2802V181.028Z" fill="white"/>
<path d="M386.516 107.725V116.011H349.227V173.06H394.165V181.347H340.303V44.6196H394.165V52.9061H349.227V107.884H386.516V107.725Z" fill="white"/>
<path d="M442.45 117.445L414.722 181.028H405.957L436.713 110.274L408.029 44.6196H417.431L443.087 103.263L469.062 44.6196H477.508L448.824 110.274L479.42 181.028H469.859L442.45 117.445Z" fill="white"/>
<path d="M501.094 148.042C501.094 162.543 506.512 174.017 521.651 174.017C536.79 174.017 542.208 162.702 542.208 148.042V44.4602H550.654V147.723C550.654 167.164 542.367 182.144 521.491 182.144C500.616 182.144 492.17 167.164 492.17 147.723V44.4602H501.094V148.042Z" fill="white"/>
<path d="M622.522 77.447V80.3154H613.917V76.8096C613.917 62.3082 608.499 51.3126 593.519 51.3126C578.699 51.3126 573.122 61.9895 573.122 76.4908C573.122 109.637 622.522 110.274 622.522 147.882C622.522 167.483 614.076 181.984 593.041 181.984C572.006 181.984 563.561 167.483 563.561 147.882V140.871H572.006V148.36C572.006 162.862 577.584 173.539 592.563 173.539C607.543 173.539 613.12 163.021 613.12 148.36C613.12 115.533 563.72 114.896 563.72 76.9689C563.72 56.412 572.644 43.1855 592.882 43.0261C614.076 43.3448 622.522 57.8462 622.522 77.447Z" fill="white"/>
<path d="M681.643 141.508L696.144 44.4602H725.943V181.028H705.546V83.1837L690.726 181.188H670.328L654.393 84.6179V181.188H635.748V44.4602H665.548L681.643 141.508Z" fill="#E6832B"/>
<path d="M739.012 77.2876C739.012 55.4558 750.485 42.8667 771.52 42.8667C792.555 42.8667 804.029 55.2965 804.029 77.2876V148.36C804.029 170.192 792.555 182.781 771.52 182.781C750.485 182.781 739.012 170.351 739.012 148.36V77.2876ZM760.525 149.794C760.525 159.515 764.827 163.34 771.68 163.34C778.532 163.34 782.835 159.675 782.835 149.794V76.0127C782.835 66.292 778.532 62.4675 771.68 62.4675C764.827 62.4675 760.525 66.1327 760.525 76.0127V149.794Z" fill="#E6832B"/>
<path d="M817.096 44.4602H851.038C872.552 44.4602 883.069 56.4119 883.069 78.2436V147.404C883.069 169.236 872.552 181.188 851.038 181.188H817.096V44.4602ZM838.449 63.9016V161.427H850.56C857.413 161.427 861.397 157.922 861.397 148.042V77.1282C861.397 67.4074 857.253 63.7423 850.56 63.7423H838.449V63.9016Z" fill="#E6832B"/>
<path d="M924.502 42.8667C945.378 42.8667 956.055 55.2965 956.055 77.2876V81.5902H935.817V76.0127C935.817 66.292 931.992 62.4675 925.14 62.4675C918.287 62.4675 914.463 66.1327 914.463 76.0127C914.463 104.059 956.374 109.477 956.374 148.52C956.374 170.351 945.378 182.94 924.343 182.94C903.308 182.94 892.312 170.511 892.312 148.52V140.074H912.71V149.794C912.71 159.515 917.013 163.18 923.865 163.18C930.717 163.18 935.02 159.675 935.02 149.794C935.02 121.748 893.109 116.33 893.109 77.2876C892.95 55.4558 903.627 42.8667 924.502 42.8667Z" fill="#E6832B"/>
</svg>
